{"title":"Destiny.Of.The.Daleks.1979.DVDRip.x264.Iou1","uid":11247599,"size":946984147,"categoryP":"video","categoryS":"tv_shows","magnet":"?xt=urn:btih:b37540c36cbf1e8535f1302604ad4b542f65893d&amp;dn=Destiny.Of.The.Daleks.1979.DVDRip.x264.Iou1&amp;tr=udp%3A%2F%2Ftracker.openbittorrent.com%3A80&amp;tr=udp%3A%2F%2Fopen.demonii.com%3A1337&amp;tr=udp%3A%2F%2Ftracker.coppersurfer.tk%3A6969&amp;tr=udp%3A%2F%2Fexodus.desync.com%3A6969","seeders":2,"leechers":0,"uploader":"jaybee211","files":-1,"time":1413762349,"description":"Genre                                    : Adventure/Drama/Sci-Fi\nFormat                                   : MPEG-4\nFormat profile                           : Base Media / Version 2\nCodec ID                                 : mp42\nFile size                                : 903 MiB\nDuration                                 : 1h 39mn 57s\nOverall bit rate mode                    : Variable\nOverall bit rate                         : 1 263 Kbps\n\nVideo\nID                                       : 2\nFormat                                   : AVC\nFormat/Info                              : Advanced Video Codec\nFormat profile                           : &lt;a class=&quot;__cf_email__&quot; href=&quot;/cdn-cgi/l/email-protection&quot; data-cfemail=&quot;1058797778505c233e21&quot;&gt;[email&amp;#160;protected]&lt;/a&gt;&lt;script cf-hash='f9e31' type=&quot;text/javascript&quot;&gt;\n/* &lt;![CDATA[ */!function(){try{var t=&quot;currentScript&quot;in document?document.currentScript:function(){for(var t=document.getElementsByTagName(&quot;script&quot;),e=t.length;e--;)if(t[e].getAttribute(&quot;cf-hash&quot;))return t[e]}();if(t&amp;&amp;t.previousSibling){var e,r,n,i,c=t.previousSibling,a=c.getAttribute(&quot;data-cfemail&quot;);if(a){for(e=&quot;&quot;,r=parseInt(a.substr(0,2),16),n=2;a.length-n;n+=2)i=parseInt(a.substr(n,2),16)^r,e+=String.fromCharCode(i);e=document.createTextNode(e),c.parentNode.replaceChild(e,c)}}}catch(u){}}();/* ]]&gt; */&lt;/script&gt;\nFormat settings, CABAC                   : Yes\nFormat settings, ReFrames                : 5 frames\nCodec ID                                 : avc1\nCodec ID/Info                            : Advanced Video Coding\nDuration                                 : 1h 39mn 57s\nBit rate mode                            : Variable\nBit rate                                 : 1 161 Kbps\nMaximum bit rate                         : 8 000 Kbps\nWidth                                    : 720 pixels\nHeight                                   : 576 pixels\nDisplay aspect ratio                     : 4:3\nFrame rate mode                          : Constant\nFrame rate                               : 29.970 fps\nStandard                                 : NTSC\nColor space                              : YUV\nChroma subsampling                       : 4:2:0\nBit depth                                : 8 bits\nScan type                                : Progressive\nBits/(Pixel*Frame)                       : 0.093\nStream size                              : 830 MiB (92%)\n\nAudio\nID                                       : 1\nFormat                                   : AAC\nFormat/Info                              : Advanced Audio Codec\nFormat profile                           : LC\nCodec ID                                 : 40\nDuration                                 : 1h 39mn 57s\nBit rate mode                            : Variable\nBit rate                                 : 96.0 Kbps\nMaximum bit rate                         : 576 Kbps\nChannel(s)                               : 2 channels\nChannel positions                        : Front: L R\nSampling rate                            : 48.0 KHz\nCompression mode                         : Lossy\nStream size                              : 72 MiB (8%)\nSubtitles                                : None\n\nScreens. &lt;a href=&quot; http://bayimg.com/FACDBAAgC&quot; rel=&quot;nofollow&quot; target=&quot;_NEW&quot;&gt; http://bayimg.com/FACDBAAgC&lt;/a&gt;\n\n         &lt;a href=&quot; http://bayimg.com/faCDcaAgC&quot; rel=&quot;nofollow&quot; target=&quot;_NEW&quot;&gt; http://bayimg.com/faCDcaAgC&lt;/a&gt;\n\n         &lt;a href=&quot; http://bayimg.com/FAcDeaagC&quot; rel=&quot;nofollow&quot; target=&quot;_NEW&quot;&gt; http://bayimg.com/FAcDeaagC&lt;/a&gt;\n\n         &lt;a href=&quot; http://bayimg.com/FaCdFAAgc&quot; rel=&quot;nofollow&quot; target=&quot;_NEW&quot;&gt; http://bayimg.com/FaCdFAAgc&lt;/a&gt;\n\nIMDB. &lt;a href=&quot; http://www.imdb.com/title/tt0562840/&quot; rel=&quot;nofollow&quot; target=&quot;_NEW&quot;&gt; http://www.imdb.com/title/tt0562840/&lt;/a&gt;\n\nStoryline.\nThe Doctor and Romana find themselves on Skaro and forced to be military advisers to the Daleks' enemy, Movellans, while the Daleks revive Davros.\n\nEnjoy","torrent":{"xt":"urn:btih:b37540c36cbf1e8535f1302604ad4b542f65893d","amp;dn":"Destiny.Of.The.Daleks.1979.DVDRip.x264.Iou1","amp;tr":["udp%3A%2F%2Ftracker.openbittorrent.com%3A80","udp%3A%2F%2Fopen.demonii.com%3A1337","udp%3A%2F%2Ftracker.coppersurfer.tk%3A6969","udp%3A%2F%2Fexodus.desync.com%3A6969"],"infoHash":"b37540c36cbf1e8535f1302604ad4b542f65893d","infoHashBuffer":{"type":"Buffer","data":[179,117,64,195,108,191,30,133,53,241,48,38,4,173,75,84,47,101,137,61]},"announce":[],"urlList":[]}}